<svg width="1280" height="720" viewBox="0 0 1280 720" fill="none" xmlns="http://www.w3.org/2000/svg">
  <rect width="1280" height="720" fill="#F8F8F8"/>
  <rect x="72" y="64" width="1136" height="592" rx="28" fill="white" stroke="#E5E5E5" stroke-width="2"/>
  <rect x="104" y="96" width="1072" height="56" rx="16" fill="#0A0A0A"/>
  <circle cx="135" cy="124" r="7" fill="#FFFFFF" opacity="0.9"/>
  <circle cx="160" cy="124" r="7" fill="#FFFFFF" opacity="0.55"/>
  <circle cx="185" cy="124" r="7" fill="#FFFFFF" opacity="0.25"/>
  <text x="224" y="131" font-family="Inter, Arial, sans-serif" font-size="18" font-weight="700" fill="white">OliveWolf Realtime Digital Human Demo</text>

  <rect x="120" y="184" width="520" height="408" rx="24" fill="#F1F1F1" stroke="#DDDDDD"/>
  <circle cx="380" cy="318" r="92" fill="white" stroke="#111111" stroke-width="5"/>
  <path d="M301 307C335 280 425 280 459 307" stroke="#999999" stroke-width="5" stroke-linecap="round"/>
  <circle cx="346" cy="322" r="9" fill="#111111"/>
  <circle cx="414" cy="322" r="9" fill="#111111"/>
  <path d="M350 374C368 392 394 392 412 374" stroke="#111111" stroke-width="7" stroke-linecap="round"/>
  <path d="M247 569C274 478 322 437 380 437C438 437 486 478 513 569" fill="white" stroke="#111111" stroke-width="5"/>
  <path d="M318 478L380 538L442 478" stroke="#CCCCCC" stroke-width="4" stroke-linecap="round"/>
  <circle cx="380" cy="506" r="8" fill="#111111" opacity="0.55"/>

  <path d="M196 438C158 420 153 373 191 350" stroke="#111111" stroke-width="4" stroke-linecap="round" stroke-dasharray="10 12" opacity="0.25"/>
  <path d="M564 438C602 420 607 373 569 350" stroke="#111111" stroke-width="4" stroke-linecap="round" stroke-dasharray="10 12" opacity="0.25"/>
  <text x="278" y="624" font-family="Inter, Arial, sans-serif" font-size="20" font-weight="800" fill="#111111">Audio-driven Avatar</text>

  <rect x="704" y="196" width="392" height="72" rx="18" fill="#111111"/>
  <text x="732" y="238" font-family="Inter, Arial, sans-serif" font-size="20" font-weight="800" fill="white">Listen</text>
  <text x="900" y="238" font-family="Inter, Arial, sans-serif" font-size="15" fill="#BDBDBD">ASR · Whisper</text>

  <rect x="704" y="292" width="392" height="72" rx="18" fill="white" stroke="#D8D8D8"/>
  <text x="732" y="334" font-family="Inter, Arial, sans-serif" font-size="20" font-weight="800" fill="#111111">Think</text>
  <text x="900" y="334" font-family="Inter, Arial, sans-serif" font-size="15" fill="#777777">LLM · Reasoning</text>

  <rect x="704" y="388" width="392" height="72" rx="18" fill="white" stroke="#D8D8D8"/>
  <text x="732" y="430" font-family="Inter, Arial, sans-serif" font-size="20" font-weight="800" fill="#111111">Speak</text>
  <text x="900" y="430" font-family="Inter, Arial, sans-serif" font-size="15" fill="#777777">TTS · Streaming</text>

  <rect x="704" y="484" width="392" height="72" rx="18" fill="white" stroke="#D8D8D8"/>
  <text x="732" y="526" font-family="Inter, Arial, sans-serif" font-size="20" font-weight="800" fill="#111111">Render</text>
  <text x="900" y="526" font-family="Inter, Arial, sans-serif" font-size="15" fill="#777777">Portrait / Full-body 3D</text>

  <path d="M900 268V292" stroke="#999999" stroke-width="3" stroke-linecap="round"/>
  <path d="M900 364V388" stroke="#999999" stroke-width="3" stroke-linecap="round"/>
  <path d="M900 460V484" stroke="#999999" stroke-width="3" stroke-linecap="round"/>
  <text x="704" y="618" font-family="Inter, Arial, sans-serif" font-size="18" fill="#666666">One interface. Two render backends. Open-core + enterprise deployment.</text>
</svg>
